<svg width="112" height="112" viewBox="0 0 112 112" fill="none" xmlns="http://www.w3.org/2000/svg">
<path d="M56.0007 98V60.6667M56.0007 98L24.1715 75.2649C23.7609 74.9716 23.5556 74.825 23.4448 74.6096C23.334 74.3943 23.334 74.142 23.334 73.6374V37.3333M56.0007 98L87.8298 75.2649C88.2404 74.9716 88.4457 74.825 88.5565 74.6096C88.6673 74.3943 88.6673 74.142 88.6673 73.6374V37.3333M56.0007 60.6667L23.334 37.3333M56.0007 60.6667L88.6673 37.3333M23.334 37.3333L54.8382 14.8303C55.3995 14.4294 55.6802 14.2289 56.0007 14.2289C56.3211 14.2289 56.6018 14.4294 57.1631 14.8303L88.6673 37.3333" stroke="#33363F" stroke-width="2" stroke-linejoin="round"/>
</svg>
