<svg width="105" height="105" viewBox="0 0 105 105" fill="none" xmlns="http://www.w3.org/2000/svg">
<g clip-path="url(#clip0_259_108)">
<path d="M105 101.613H101.613V105H105V101.613Z" fill="black"/>
<path d="M81.2903 16.9355V3.3871H54.1936V0H50.8065V3.3871H23.7097V39.9796L13.5484 34.1131V33.871H13.1301L12.7643 33.6593L12.6406 33.871H0V57.5806C0 61.3166 3.03823 64.3548 6.77419 64.3548H23.7097V71.129H38.579L32.4823 101.613H0V105H50.8065H54.1936H98.2258V101.613H72.5177L66.421 71.129H81.2903V44.0323H94.8387V40.6452H91.9258L94.9911 28.3873L88.7131 20.5394C95.069 21.6537 99.9194 27.2001 99.9194 33.871H103.306C103.306 28.328 100.617 23.4133 96.4882 20.3226H105V16.9355H81.2903ZM10.1613 57.5806C10.1613 59.4486 8.64218 60.9677 6.77419 60.9677C4.90621 60.9677 3.3871 59.4486 3.3871 57.5806V37.2581H10.1613V57.5806ZM22.6783 44.4878L26.0654 50.3526L15.12 56.6729L21.8925 44.9417L22.6783 44.4878ZM13.5484 39.0752L14.004 38.2861L19.8687 41.6731L13.5484 52.6202V39.0752ZM14.4527 60.9677L26.1873 54.1936H27.0968V60.9677H14.4527ZM50.8065 101.613H35.9371L42.0339 71.129H50.8065V101.613ZM69.0629 101.613H54.1936V71.129H62.9661L69.0629 101.613ZM77.7508 28.3873L80.8161 40.6452H77.9032V42.3387V44.0323V67.7419H27.0968V64.3548H30.4839V51.7125L30.6939 51.5906L30.4839 51.2281V50.8065H30.24L27.0968 45.3617V6.77419H77.9032V16.9355H67.7419V20.3226H76.2537C72.1248 23.4133 69.4355 28.328 69.4355 33.871H72.8226C72.8226 27.2001 77.6729 21.6537 84.0288 20.5394L77.7508 28.3873ZM91.2992 29.1951L88.4371 40.6452H84.3048L81.4427 29.1934L84.6774 25.1509V32.1774H88.0645V25.1509L91.2992 29.1951Z" fill="black"/>
<path d="M37.2582 13.5483H33.8711V16.9354H37.2582V13.5483Z" fill="black"/>
<path d="M71.1293 57.5806H67.7422V60.9677H71.1293V57.5806Z" fill="black"/>
<path d="M67.7417 37.2581C67.7417 28.8531 60.9048 22.0162 52.4997 22.0162C49.7596 22.0162 47.1922 22.7529 44.9685 24.0231L40.3214 17.6333L37.583 19.6249L42.2368 26.0231C39.1851 28.8124 37.2578 32.8092 37.2578 37.2581C37.2578 45.6632 44.0947 52.5001 52.4997 52.5001C55.2399 52.5001 57.8073 51.7634 60.031 50.4932L64.6781 56.883L67.4165 54.8914L62.7627 48.4931C65.8144 45.7039 67.7417 41.7071 67.7417 37.2581ZM52.4997 49.113C45.9643 49.113 40.6449 43.7935 40.6449 37.2581C40.6449 33.9337 42.0252 30.9293 44.2369 28.7752L58.0275 47.7378C56.3746 48.6117 54.4964 49.113 52.4997 49.113ZM46.972 26.7785C48.6249 25.9046 50.5031 25.4033 52.4997 25.4033C59.0352 25.4033 64.3546 30.7227 64.3546 37.2581C64.3546 40.5826 62.9743 43.5869 60.7626 45.7411L46.972 26.7785Z" fill="black"/>
</g>
<defs>
<clipPath id="clip0_259_108">
<rect width="105" height="105" fill="white"/>
</clipPath>
</defs>
</svg>
