<svg width="427" height="133" viewBox="0 0 427 133" fill="none" xmlns="http://www.w3.org/2000/svg">
<rect x="25" y="2" width="400" height="111" stroke="#FFBFFF" stroke-width="4"/>
<rect x="2" y="17" width="399" height="114" fill="white"/>
<path d="M72.32 61.88V59.72H93L93.28 66.6H89.96L89.16 61.96H82.2C82.1733 63.48 82.1467 65.0133 82.12 66.56C82.12 68.1067 82.12 69.6667 82.12 71.24H86.56L87.04 68.12H89.36V77.12H87.04L86.52 73.6H82.12C82.12 75.3867 82.12 77.0933 82.12 78.72C82.1467 80.32 82.1733 81.9067 82.2 83.48L85.76 83.84V86H72.32V83.84L75.32 83.52C75.3733 81.8933 75.4 80.2533 75.4 78.6C75.4 76.9467 75.4 75.28 75.4 73.6V72.12C75.4 70.4667 75.4 68.8133 75.4 67.16C75.4 65.48 75.3733 63.8267 75.32 62.2L72.32 61.88ZM94.4266 86V84.12L96.5866 83.64C96.6132 82.68 96.6266 81.64 96.6266 80.52C96.6266 79.4 96.6266 78.4267 96.6266 77.6V75.68C96.6266 74.5867 96.6132 73.68 96.5866 72.96C96.5866 72.2133 96.5599 71.44 96.5066 70.64L94.0266 70.28V68.72L102.427 66.04L103.107 66.48L102.987 72.28V77.6C102.987 78.4267 102.987 79.4133 102.987 80.56C102.987 81.68 103 82.7333 103.027 83.72L105.027 84.12V86H94.4266ZM99.7466 63.08C98.8132 63.08 98.0132 62.7867 97.3466 62.2C96.6799 61.5867 96.3466 60.8267 96.3466 59.92C96.3466 58.9867 96.6799 58.2267 97.3466 57.64C98.0132 57.0267 98.8132 56.72 99.7466 56.72C100.68 56.72 101.48 57.0267 102.147 57.64C102.813 58.2267 103.147 58.9867 103.147 59.92C103.147 60.8267 102.813 61.5867 102.147 62.2C101.48 62.7867 100.68 63.08 99.7466 63.08ZM107.003 86V84.12L109.163 83.64C109.189 82.68 109.203 81.64 109.203 80.52C109.203 79.4 109.203 78.4267 109.203 77.6V75.28C109.203 74.1867 109.189 73.3467 109.163 72.76C109.163 72.1467 109.136 71.44 109.083 70.64L106.643 70.28V68.72L114.523 66.04L115.243 66.48L115.483 69.36C116.523 68.1333 117.549 67.28 118.563 66.8C119.603 66.2933 120.709 66.04 121.883 66.04C123.616 66.04 125.003 66.6133 126.043 67.76C127.109 68.9067 127.643 70.6267 127.643 72.92V77.6C127.643 78.48 127.643 79.48 127.643 80.6C127.643 81.6933 127.656 82.7333 127.683 83.72L129.683 84.12V86H119.123V84.12L121.203 83.68C121.229 82.6933 121.243 81.6533 121.243 80.56C121.243 79.44 121.243 78.4533 121.243 77.6V73.4C121.243 72.12 121.069 71.2267 120.723 70.72C120.376 70.1867 119.816 69.92 119.043 69.92C118.003 69.92 116.856 70.4 115.603 71.36V77.6C115.603 78.4267 115.603 79.4133 115.603 80.56C115.603 81.68 115.616 82.7333 115.643 83.72L117.523 84.12V86H107.003ZM138.451 76.44C138.451 78.6267 138.838 80.2933 139.611 81.44C140.385 82.56 141.385 83.12 142.611 83.12C143.518 83.12 144.345 82.8133 145.091 82.2V70.28C144.371 69.72 143.585 69.44 142.731 69.44C141.505 69.44 140.478 70.0133 139.651 71.16C138.851 72.3067 138.451 74.0667 138.451 76.44ZM145.611 86.44L145.291 84.16C143.745 85.7867 141.865 86.6 139.651 86.6C138.158 86.6 136.798 86.2133 135.571 85.44C134.371 84.6667 133.425 83.5333 132.731 82.04C132.038 80.52 131.691 78.68 131.691 76.52C131.691 74.3333 132.105 72.4667 132.931 70.92C133.785 69.3467 134.878 68.1467 136.211 67.32C137.571 66.4667 138.998 66.04 140.491 66.04C141.531 66.04 142.438 66.2267 143.211 66.6C143.985 66.9467 144.691 67.4667 145.331 68.16V60.84L142.531 60.44V58.76L150.971 56.96L151.611 57.36L151.451 62.96V83.72L153.411 84.12V86L145.611 86.44ZM174.156 86.6C172.076 86.6 170.276 86.1733 168.756 85.32C167.236 84.44 166.063 83.2267 165.236 81.68C164.409 80.1067 163.996 78.2933 163.996 76.24C163.996 74.1867 164.436 72.4 165.316 70.88C166.223 69.36 167.449 68.1733 168.996 67.32C170.543 66.4667 172.263 66.04 174.156 66.04C176.049 66.04 177.756 66.4533 179.276 67.28C180.823 68.1067 182.049 69.2933 182.956 70.84C183.863 72.36 184.316 74.16 184.316 76.24C184.316 78.32 183.903 80.1333 183.076 81.68C182.249 83.2267 181.076 84.44 179.556 85.32C178.036 86.1733 176.236 86.6 174.156 86.6ZM174.156 84.52C175.276 84.52 176.116 83.8667 176.676 82.56C177.236 81.2533 177.516 79.1867 177.516 76.36C177.516 73.5067 177.236 71.4267 176.676 70.12C176.116 68.8133 175.276 68.16 174.156 68.16C173.009 68.16 172.156 68.8133 171.596 70.12C171.036 71.4267 170.756 73.5067 170.756 76.36C170.756 79.1867 171.036 81.2533 171.596 82.56C172.156 83.8667 173.009 84.52 174.156 84.52ZM200.616 86.44L200.376 83.08C199.523 84.2 198.549 85.0667 197.456 85.68C196.363 86.2933 195.176 86.6 193.896 86.6C192.189 86.6 190.816 86.0667 189.776 85C188.736 83.9067 188.229 82.04 188.256 79.4L188.416 69.64L186.096 69.12V67.44L194.256 66.28L194.896 66.72L194.696 72.36V79.44C194.696 80.6667 194.883 81.52 195.256 82C195.656 82.48 196.189 82.72 196.856 82.72C197.416 82.72 197.989 82.5467 198.576 82.2C199.189 81.8533 199.763 81.4267 200.296 80.92L200.456 69.6L198.256 69.12V67.56L206.216 66.28L206.856 66.72L206.736 72.36V83.72L208.816 84.16V86.04L200.616 86.44ZM218.353 86.6C216.566 86.6 215.166 86.1733 214.153 85.32C213.139 84.44 212.633 83.0133 212.633 81.04C212.633 80.3467 212.633 79.7067 212.633 79.12C212.659 78.5067 212.673 77.8133 212.673 77.04V69.4H210.073V67.04L213.033 66.64L215.033 61.04H219.113L219.033 66.68H223.233V69.4H219.033V80.6C219.033 81.5333 219.219 82.2267 219.593 82.68C219.993 83.1067 220.486 83.32 221.073 83.32C221.766 83.32 222.486 83.0267 223.233 82.44L224.233 83.4C223.699 84.4133 222.953 85.2 221.993 85.76C221.059 86.32 219.846 86.6 218.353 86.6ZM233.643 86V84.12L235.803 83.64C235.83 82.68 235.843 81.64 235.843 80.52C235.843 79.4 235.843 78.4267 235.843 77.6V75.28C235.843 74.1867 235.83 73.3467 235.803 72.76C235.803 72.1467 235.777 71.44 235.723 70.64L233.283 70.28V68.72L241.163 66.04L241.883 66.48L242.123 69.36C243.057 68.2667 244.03 67.44 245.043 66.88C246.083 66.32 247.19 66.04 248.363 66.04C251.11 66.04 252.883 67.2267 253.683 69.6C254.777 68.2667 255.83 67.3467 256.843 66.84C257.883 66.3067 258.977 66.04 260.123 66.04C262.15 66.04 263.63 66.6267 264.563 67.8C265.497 68.9733 265.963 70.7467 265.963 73.12V77.6C265.963 78.4533 265.963 79.44 265.963 80.56C265.963 81.68 265.977 82.72 266.003 83.68L268.003 84.12V86H257.683V84.12L259.643 83.64C259.67 82.68 259.683 81.6533 259.683 80.56C259.683 79.44 259.683 78.4533 259.683 77.6V73.72C259.683 72.2267 259.51 71.2267 259.163 70.72C258.817 70.1867 258.23 69.92 257.403 69.92C256.283 69.92 255.163 70.4 254.043 71.36C254.07 71.6 254.083 71.8533 254.083 72.12C254.11 72.36 254.123 72.6267 254.123 72.92V77.6C254.123 78.48 254.123 79.48 254.123 80.6C254.123 81.6933 254.137 82.7333 254.163 83.72L256.043 84.12V86H245.723V84.12L247.803 83.64C247.83 82.68 247.843 81.6533 247.843 80.56C247.843 79.44 247.843 78.4533 247.843 77.6V73.76C247.843 72.3467 247.67 71.36 247.323 70.8C247.003 70.2133 246.403 69.92 245.523 69.92C244.963 69.92 244.403 70.0533 243.843 70.32C243.283 70.5867 242.75 70.9333 242.243 71.36V77.6C242.243 78.4267 242.243 79.4133 242.243 80.56C242.243 81.68 242.257 82.7333 242.283 83.72L244.163 84.12V86H233.643ZM280.133 86.6C278.053 86.6 276.253 86.1733 274.733 85.32C273.213 84.44 272.039 83.2267 271.213 81.68C270.386 80.1067 269.973 78.2933 269.973 76.24C269.973 74.1867 270.413 72.4 271.293 70.88C272.199 69.36 273.426 68.1733 274.973 67.32C276.519 66.4667 278.239 66.04 280.133 66.04C282.026 66.04 283.733 66.4533 285.253 67.28C286.799 68.1067 288.026 69.2933 288.933 70.84C289.839 72.36 290.293 74.16 290.293 76.24C290.293 78.32 289.879 80.1333 289.053 81.68C288.226 83.2267 287.053 84.44 285.533 85.32C284.013 86.1733 282.213 86.6 280.133 86.6ZM280.133 84.52C281.253 84.52 282.093 83.8667 282.653 82.56C283.213 81.2533 283.493 79.1867 283.493 76.36C283.493 73.5067 283.213 71.4267 282.653 70.12C282.093 68.8133 281.253 68.16 280.133 68.16C278.986 68.16 278.133 68.8133 277.573 70.12C277.013 71.4267 276.733 73.5067 276.733 76.36C276.733 79.1867 277.013 81.2533 277.573 82.56C278.133 83.8667 278.986 84.52 280.133 84.52ZM292.51 86V84.12L294.71 83.68C294.736 82.6933 294.75 81.64 294.75 80.52C294.75 79.4 294.75 78.4267 294.75 77.6V75.24C294.75 74.4933 294.736 73.88 294.71 73.4C294.71 72.92 294.696 72.48 294.67 72.08C294.67 71.6533 294.656 71.1733 294.63 70.64L292.19 70.28V68.72L300.07 66.04L300.79 66.48L301.15 71.2C301.71 69.4933 302.496 68.2133 303.51 67.36C304.523 66.48 305.523 66.04 306.51 66.04C307.39 66.04 308.15 66.2933 308.79 66.8C309.43 67.28 309.83 68.0133 309.99 69C309.963 70.04 309.683 70.8533 309.15 71.44C308.616 72 307.95 72.28 307.15 72.28C306.03 72.28 305.003 71.6533 304.07 70.4L303.83 70.08C303.243 70.64 302.696 71.3467 302.19 72.2C301.71 73.0533 301.363 73.9467 301.15 74.88V77.6C301.15 78.4267 301.15 79.3733 301.15 80.44C301.15 81.5067 301.163 82.5067 301.19 83.44L304.35 84.12V86H292.51ZM320.399 68.12C319.653 68.12 318.959 68.5867 318.319 69.52C317.706 70.4267 317.359 72.1067 317.279 74.56H320.679C321.639 74.56 322.279 74.3733 322.599 74C322.946 73.6 323.119 72.9467 323.119 72.04C323.119 70.7067 322.853 69.72 322.319 69.08C321.786 68.44 321.146 68.12 320.399 68.12ZM320.479 86.6C318.533 86.6 316.813 86.2 315.319 85.4C313.826 84.5733 312.653 83.4 311.799 81.88C310.946 80.3333 310.519 78.4933 310.519 76.36C310.519 74.12 311.013 72.24 311.999 70.72C313.013 69.1733 314.306 68.0133 315.879 67.24C317.453 66.44 319.093 66.04 320.799 66.04C322.559 66.04 324.053 66.4133 325.279 67.16C326.533 67.9067 327.479 68.92 328.119 70.2C328.759 71.4533 329.079 72.8933 329.079 74.52C329.079 75.2933 328.999 76 328.839 76.64H317.279C317.413 78.7467 317.986 80.3067 318.999 81.32C320.039 82.3067 321.253 82.8 322.639 82.8C323.733 82.8 324.666 82.6 325.439 82.2C326.213 81.7733 326.893 81.2533 327.479 80.64L328.879 81.92C328.053 83.4933 326.933 84.6667 325.519 85.44C324.106 86.2133 322.426 86.6 320.479 86.6Z" fill="black"/>
<rect x="2" y="17" width="399" height="114" stroke="black" stroke-width="4"/>
</svg>
