<svg width="107" height="107" viewBox="0 0 107 107" fill="none" xmlns="http://www.w3.org/2000/svg">
<g clip-path="url(#clip0_259_77)">
<path d="M94.8179 39.0683H60.2945C60.4134 38.4367 60.4761 37.7924 60.4761 37.1362V15.928C60.4761 10.1952 55.8122 5.53149 50.0795 5.53149H10.3943C4.66265 5.53149 0 10.1952 0 15.928V37.1362C0 42.8676 4.66265 47.5302 10.3943 47.5302H16.501L16.1714 55.2079C16.1417 55.9007 16.501 56.5521 17.1029 56.8963C17.3885 57.0597 17.706 57.141 18.0234 57.141C18.3743 57.141 18.7248 57.0413 19.0305 56.8434L33.4204 47.53H35.2435C34.867 48.7026 34.6613 49.9511 34.6613 51.247V76.8844C34.6613 83.5999 40.1248 89.0636 46.8405 89.0636H52.1023L63.7039 100.912C64.0585 101.274 64.5383 101.469 65.0282 101.469C65.234 101.469 65.4416 101.434 65.6426 101.364C66.3218 101.125 66.8012 100.514 66.8723 99.7981L67.9375 89.0636H94.8181C101.535 89.0636 107 83.5999 107 76.8844V51.2472C107 44.5315 101.535 39.0683 94.8179 39.0683ZM37.195 43.8233H32.8726C32.5152 43.8233 32.1656 43.9265 31.8655 44.1209L20.0289 51.7818L20.2876 45.7564C20.3093 45.2515 20.1237 44.7597 19.7743 44.3946C19.4247 44.0295 18.9413 43.8233 18.436 43.8233H10.3945C6.70693 43.8233 3.70676 40.8235 3.70676 37.1362V15.928C3.70676 12.2393 6.70694 9.23846 10.3943 9.23846H50.08C53.7687 9.23846 56.7696 12.2395 56.7696 15.928V37.1362C56.7696 37.8001 56.6736 38.4465 56.4853 39.0683H46.8403C42.9174 39.0683 39.4243 40.9343 37.195 43.8233ZM103.293 76.8844C103.293 81.556 99.4914 85.3568 94.8181 85.3568H66.2585C65.3057 85.3568 64.508 86.0791 64.414 87.0275L63.5753 95.4828L54.2057 85.9138C53.8574 85.5577 53.3798 85.3571 52.8816 85.3571H46.8407C42.1691 85.3571 38.3683 81.5562 38.3683 76.8846V51.2472C38.3683 46.5756 42.1691 42.775 46.8407 42.775H94.8183V42.7748C99.4916 42.7748 103.294 46.5754 103.294 51.247V76.8844H103.293Z" fill="black"/>
<path d="M38.3082 19.5935C38.0562 15.5365 34.8067 12.287 30.7497 12.0351C28.4912 11.8955 26.343 12.6679 24.6998 14.2123C23.0793 15.7352 22.1504 17.8834 22.1504 20.1059C22.1502 21.1299 22.9796 21.9596 24.0037 21.9596C25.0277 21.9596 25.8571 21.1297 25.8571 20.1061C25.8571 18.8844 26.3476 17.7509 27.2383 16.9135C28.1282 16.0771 29.2939 15.6585 30.5198 15.7346C32.6784 15.8685 34.4742 17.6643 34.6084 19.8227C34.7095 21.4532 33.9091 22.9945 32.5191 23.8455C29.9296 25.4306 28.3836 28.17 28.3836 31.1735C28.3836 32.1971 29.2132 33.027 30.237 33.027C31.2609 33.027 32.0905 32.1971 32.0905 31.1735C32.0905 29.4705 32.9743 27.9131 34.4546 27.007C37.0177 25.4381 38.4946 22.5972 38.3082 19.5935Z" fill="black"/>
<path d="M70.83 50.2397C69.8062 50.2397 68.9766 51.0696 68.9766 52.0932V67.7802C68.9766 68.8038 69.8064 69.6337 70.83 69.6337C71.8539 69.6337 72.6835 68.8038 72.6835 67.7802V52.0932C72.6833 51.0696 71.8539 50.2397 70.83 50.2397Z" fill="black"/>
<path d="M70.8281 77.9379C71.8517 77.9379 72.6816 77.1081 72.6816 76.0844C72.6816 75.0608 71.8517 74.231 70.8281 74.231C69.8044 74.231 68.9746 75.0608 68.9746 76.0844C68.9746 77.1081 69.8044 77.9379 70.8281 77.9379Z" fill="black"/>
<path d="M30.2363 39.8984C31.2599 39.8984 32.0898 39.0685 32.0898 38.0449C32.0898 37.0212 31.2599 36.1914 30.2363 36.1914C29.2126 36.1914 28.3828 37.0212 28.3828 38.0449C28.3828 39.0685 29.2126 39.8984 30.2363 39.8984Z" fill="black"/>
</g>
<defs>
<clipPath id="clip0_259_77">
<rect width="107" height="107" fill="white"/>
</clipPath>
</defs>
</svg>
