<svg width="50" height="77" viewBox="0 0 50 77" fill="none" xmlns="http://www.w3.org/2000/svg">
<g clip-path="url(#clip0_201_204)">
<path d="M31.624 76.2167C35.8511 75.0575 39.6371 72.8079 42.6547 69.8063C47.1841 65.3009 49.9937 59.0847 49.9937 52.2419V24.8646C49.9937 18.0218 47.1841 11.8057 42.6547 7.30021C38.1252 2.79476 31.876 0 24.9968 0C18.124 0 11.8685 2.79476 7.33904 7.30021C2.80963 11.8057 0 18.0281 0 24.8646V52.2357C0 59.0785 2.80963 65.2946 7.33904 69.8C10.8605 73.3029 15.4151 75.7718 20.4989 76.6992C23.5731 77.2632 28.7892 76.9937 31.624 76.2167ZM24.7134 57.6873C27.3277 57.6873 29.4696 55.5568 29.4696 52.9563V48.0811C29.4696 45.4806 27.3277 43.3501 24.7134 43.3501C22.099 43.3501 19.9572 45.4806 19.9572 48.0811V52.9563C19.9572 55.5568 22.0927 57.6873 24.7134 57.6873ZM38.478 65.6518C35.0195 69.092 30.2444 71.235 24.9968 71.235C19.7493 71.235 14.9805 69.0982 11.5157 65.6518C8.0572 62.2116 5.90273 57.4618 5.90273 52.2419V24.8646C5.90273 19.6448 8.0509 14.9012 11.5157 11.4548C14.9742 8.01457 19.7493 5.8715 24.9968 5.8715C30.2444 5.8715 35.0132 8.0083 38.478 11.4548C41.9365 14.8949 44.091 19.6448 44.091 24.8646V52.2357C44.091 57.4618 41.9428 62.2053 38.478 65.6518Z" fill="black"/>
</g>
<defs>
<clipPath id="clip0_201_204">
<rect width="50" height="77" fill="white"/>
</clipPath>
</defs>
</svg>
