<svg width="78" height="78" viewBox="0 0 78 78" fill="none" xmlns="http://www.w3.org/2000/svg">
<path d="M11.9159 18.6513H51.4239C52.383 18.6513 53.1601 17.8742 53.1601 16.9151C53.1601 15.9561 52.383 15.179 51.4239 15.179H11.9159C10.957 15.179 10.1797 15.9561 10.1797 16.9151C10.1797 17.8742 10.957 18.6513 11.9159 18.6513Z" fill="black"/>
<path d="M11.9159 26.1386H55.7451C56.7042 26.1386 57.4813 25.3615 57.4813 24.4024C57.4813 23.4434 56.7042 22.6663 55.7451 22.6663H11.9159C10.957 22.6663 10.1797 23.4434 10.1797 24.4024C10.1797 25.3615 10.957 26.1386 11.9159 26.1386Z" fill="black"/>
<path d="M75.1472 28.0228C72.8464 25.7222 69.1516 25.6458 66.7575 27.7927V1.73619C66.7575 0.777118 65.9804 0 65.0213 0H2.80259C1.84376 0 1.06641 0.777118 1.06641 1.73619V76.2638C1.06641 77.2229 1.84376 78 2.80259 78H65.0211C65.9802 78 66.7573 77.2229 66.7573 76.2638V45.046L75.1185 36.6847C75.1232 36.6801 75.1266 36.6752 75.131 36.6708C75.1364 36.6657 75.1421 36.6614 75.1472 36.6563C77.5274 34.2758 77.5274 30.403 75.1472 28.0228ZM4.53878 74.5276V3.47238H63.2849V31.2514L56.6434 37.8931C56.3811 37.7339 56.0746 37.6408 55.7455 37.6408H11.9162C10.9574 37.6408 10.18 38.4179 10.18 39.377C10.18 40.3361 10.9574 41.1132 11.9162 41.1132H53.4231L49.4081 45.1282H11.9162C10.9574 45.1282 10.18 45.9053 10.18 46.8644C10.18 47.8234 10.9574 48.6005 11.9162 48.6005H45.9358L41.9208 52.6155H11.9162C10.9574 52.6155 10.18 53.3927 10.18 54.3517C10.18 55.3108 10.9574 56.0879 11.9162 56.0879H38.4486L35.2547 59.2818C35.2077 59.3288 35.1649 59.3781 35.1244 59.4288C35.114 59.4422 35.1045 59.4563 35.0943 59.47C35.0644 59.5098 35.036 59.5503 35.01 59.592C35.0003 59.6075 34.9911 59.6237 34.9818 59.6397C34.9566 59.683 34.9337 59.7272 34.9124 59.7719C34.908 59.7814 34.9024 59.7897 34.898 59.7992L34.6142 60.4323C34.3285 60.2256 33.9785 60.1027 33.5993 60.1027H11.9162C10.9574 60.1027 10.18 60.8798 10.18 61.8389C10.18 62.7979 10.9574 63.575 11.9162 63.575H33.2053L30.9698 68.5611C30.9298 68.6507 30.8992 68.7424 30.8751 68.8352C30.4216 69.8001 30.5899 70.9874 31.3858 71.7831C31.8773 72.2747 32.5305 72.5454 33.2259 72.5454C33.6206 72.5454 34.0005 72.4553 34.3464 72.2898C34.4348 72.2659 34.5225 72.2375 34.6077 72.1993L43.3704 68.2713C43.3794 68.2672 43.3875 68.2618 43.3963 68.2574C43.4421 68.2361 43.4873 68.2128 43.5313 68.1868C43.5465 68.178 43.5618 68.1692 43.5766 68.16C43.6199 68.1331 43.6618 68.104 43.703 68.0729C43.7151 68.0637 43.7278 68.0553 43.7398 68.0459C43.791 68.0051 43.8408 67.962 43.888 67.9148L63.2849 48.5179V74.5276H4.53878V74.5276ZM39.651 66.1337L35.1209 68.1644C35.1019 68.1442 35.0853 68.1229 35.0658 68.1033C35.0464 68.0838 35.0253 68.0671 35.0054 68.0484L37.0363 63.5188L39.651 66.1337ZM42.6604 64.2323L38.9378 60.5096L67.7131 31.7343L71.4357 35.4569L42.6604 64.2323ZM73.4511 32.5614L70.6089 29.7191C71.3549 29.6564 72.1223 29.9085 72.692 30.4782C73.2617 31.0477 73.5136 31.8155 73.4511 32.5614Z" fill="black"/>
<path d="M11.9159 33.6259H48.9546C49.9136 33.6259 50.6908 32.8488 50.6908 31.8898C50.6908 30.9307 49.9136 30.1536 48.9546 30.1536H11.9159C10.957 30.1536 10.1797 30.9307 10.1797 31.8898C10.1797 32.8488 10.957 33.6259 11.9159 33.6259Z" fill="black"/>
</svg>
