<svg width="102" height="102" viewBox="0 0 102 102" fill="none" xmlns="http://www.w3.org/2000/svg">
<path d="M51 85L17.6797 43.3496C17.3472 42.934 17.1809 42.7262 17.1363 42.4757C17.0916 42.2252 17.1757 41.9728 17.3441 41.4678L24.5883 19.7351C25.0283 18.4151 25.2483 17.755 25.7721 17.3775C26.2959 17 26.9916 17 28.383 17H73.617C75.0084 17 75.7041 17 76.2279 17.3775C76.7517 17.755 76.9717 18.4151 77.4117 19.7351L84.6559 41.4678C84.8243 41.9728 84.9084 42.2252 84.8637 42.4757C84.8191 42.7262 84.6528 42.934 84.3203 43.3496L51 85ZM51 85L65.875 38.25M51 85L36.125 38.25M82.875 42.5L65.875 38.25M65.875 38.25L59.5 21.25M65.875 38.25H36.125M42.5 21.25L36.125 38.25M36.125 38.25L19.125 42.5" stroke="#FFBEFF" stroke-width="2" stroke-linecap="round"/>
</svg>
