<svg width="148" height="22" viewBox="0 0 148 22" fill="none" xmlns="http://www.w3.org/2000/svg">
<g clip-path="url(#clip0_201_171)">
<path d="M7.01314 16.3808C8.91436 16.0859 10.9616 16.011 12.9067 15.9327C14.0324 15.8986 15.1058 15.8987 16.2304 15.9005C17.8156 15.8818 19.3997 15.8989 21.0336 15.9536C24.0985 16.0203 27.1122 16.0853 30.1759 16.1877C36.2521 16.391 42.3294 16.5585 48.4639 16.5486C54.8026 16.5455 61.0902 16.5408 67.4289 16.5377C73.4101 16.5227 79.3914 16.5077 85.4213 16.5661C91.4014 16.5869 97.4313 16.6452 103.414 16.5944C109.551 16.5129 115.683 16.5746 121.813 16.6722C124.726 16.6979 127.639 16.7237 130.557 16.6062C132.092 16.55 133.578 16.4563 135.114 16.3643C136.6 16.2706 138.083 16.2485 139.567 16.1906C140.95 16.1293 142.276 16.2095 143.652 16.3273C144.625 16.2881 145.403 15.9556 145.934 15.364C146.202 14.9786 146.52 14.6308 146.789 14.2455C147.333 13.2599 147.623 12.23 147.608 11.154C147.644 10.0798 147.474 9.03452 146.997 8.01481C146.755 7.61237 146.461 7.24404 146.219 6.84161C145.728 6.21579 145.024 5.8696 144.007 5.72801C143.24 5.7382 142.522 5.7859 141.755 5.79609C141.09 5.80969 140.375 5.78578 139.712 5.76357C138.231 5.71404 136.8 5.70202 135.318 5.68829C132.252 5.65742 129.235 5.69988 126.169 5.66901C120.242 5.5783 114.318 5.41596 108.438 5.47019C105.267 5.50752 102.096 5.54485 98.9271 5.54638C96.0642 5.55815 93.1513 5.5324 90.2896 5.50837C84.1575 5.44663 78.0231 5.4565 71.8886 5.46638C65.8563 5.47968 59.7729 5.49126 53.7406 5.50456C50.4181 5.50096 47.0433 5.53145 43.7208 5.52785C40.7046 5.5345 37.7431 5.43543 34.7294 5.37046C28.6009 5.2013 22.4725 5.03213 16.3368 5.07782C14.8026 5.09819 13.3195 5.12028 11.8339 5.21397C10.6049 5.2804 9.37464 5.38264 8.19427 5.5224C7.27039 5.63489 6.34411 5.81899 5.4689 6.0048C4.9547 6.09515 4.43691 6.29292 3.97018 6.49239C3.03432 6.96296 2.40003 7.58702 2.01625 8.36284C1.14898 9.83946 0.986962 11.6265 1.29168 13.214C1.46477 14.1518 1.89437 15.0624 2.58286 15.8741C2.9319 16.1367 3.28094 16.3993 3.62998 16.662C4.43497 17.0474 5.25193 17.0747 6.02982 16.7422C6.23885 16.6058 6.65213 16.4763 7.01314 16.3808Z" fill="#FFC0FF"/>
</g>
<defs>
<clipPath id="clip0_201_171">
<rect width="146.368" height="15.8899" fill="white" transform="translate(1.21289 0.951202) rotate(1.91597)"/>
</clipPath>
</defs>
</svg>
