<svg width="86" height="86" viewBox="0 0 86 86" fill="none" xmlns="http://www.w3.org/2000/svg">
<g clip-path="url(#clip0_201_177)">
<path d="M25.7403 77.4069L74.2227 28.9246L57.0793 11.781L9.55889 59.3014L-0.000549316 85.9526L25.7403 77.4069ZM57.0793 15.5729L70.4308 28.9246L27.2883 72.0672L27.2767 70.115L23.4941 70.13L23.4791 66.3226L19.6788 66.3146L19.6869 62.5032L15.9131 62.5487L15.8678 58.7111L13.9298 58.7225L57.0793 15.5729ZM11.6484 61.4176L13.2181 61.4084L13.2634 65.2626L16.9997 65.2174L16.9917 68.9906L20.8081 68.9987L20.8234 72.8223L24.6112 72.8074L24.6227 74.7328L24.2929 75.0625L11.5589 79.2902L10.7592 75.2906L6.94563 74.5279L11.6484 61.4176ZM8.48087 77.5688L8.99519 80.1409L4.38327 81.6721L6.03071 77.0788L8.48087 77.5688Z" fill="black"/>
<path d="M77.0766 26.0768L59.9746 8.97479L58.0788 10.8706L75.1808 27.9726L77.0766 26.0768Z" fill="black"/>
<path d="M84.2551 18.8928C86.5816 16.5661 86.5816 12.7802 84.2551 10.4534L75.597 1.79541C74.4697 0.668174 72.9713 0.0475281 71.3773 0.0475279C69.7832 0.0475278 68.2846 0.668341 67.1576 1.79541L60.9305 8.02252L78.0278 25.1197L84.2551 18.8928ZM69.0534 3.69111C69.6741 3.0703 70.4993 2.72848 71.3771 2.72848C72.2549 2.72848 73.0801 3.07046 73.7008 3.69111L82.3591 12.3491C83.6405 13.6303 83.6405 15.7155 82.3591 16.9968L78.028 21.3278L64.7223 8.02201L69.0534 3.69111Z" fill="black"/>
</g>
<defs>
<clipPath id="clip0_201_177">
<rect width="86" height="86" fill="white" transform="translate(86 86) rotate(-180)"/>
</clipPath>
</defs>
</svg>
